<svg width="20" height="20" viewBox="0 0 20 20" fill="none" xmlns="http://www.w3.org/2000/svg">
<g clip-path="url(#clip0_105_1606)">
<path d="M12.7816 3.24623C13.4341 2.40499 13.9278 1.21499 13.7491 0C12.6828 0.0737496 11.4366 0.756245 10.7103 1.64499C10.0479 2.45124 9.50286 3.64873 9.71535 4.81247C10.8803 4.84872 12.0841 4.14998 12.7816 3.24623Z" fill="white"/>
<path d="M17.9628 6.70989C16.9391 5.42615 15.5003 4.68115 14.1416 4.68115C12.3478 4.68115 11.5891 5.5399 10.3429 5.5399C9.05786 5.5399 8.08162 4.68365 6.53038 4.68365C5.00663 4.68365 3.38414 5.6149 2.3554 7.20739C0.909159 9.44987 1.15666 13.6661 3.50039 17.2573C4.33914 18.5423 5.45913 19.9873 6.92412 19.9998C8.22787 20.0123 8.59536 19.1636 10.3616 19.1548C12.1278 19.1448 12.4628 20.0111 13.7641 19.9973C15.2303 19.9861 16.4116 18.3848 17.2503 17.0998C17.8516 16.1786 18.0753 15.7148 18.5416 14.6748C15.1503 13.3836 14.6066 8.56113 17.9628 6.70989Z" fill="white"/>
</g>
<defs>
<clipPath id="clip0_105_1606">
<rect width="20" height="20" fill="white"/>
</clipPath>
</defs>
</svg>
