<svg width="32" height="32" viewBox="0 0 32 32" fill="none" xmlns="http://www.w3.org/2000/svg">
<path d="M22.4091 5.46969L21.8888 5.99C19.8406 3.99125 16.8606 3.50063 14.3556 4.51875C12.8363 2.96563 10.7188 2 8.38 2C3.77063 2 0.0200043 5.75 0.0200043 10.36V30H3.02V10.4271C3.02 7.47137 5.38438 5.02181 8.33994 5.00012C9.673 4.99031 10.8961 5.47006 11.84 6.27C9.34188 8.99187 9.39188 13.2275 11.99 15.8888L11.4697 16.4091C11.1768 16.7019 11.1768 17.1768 11.4697 17.4697L12.5303 18.5303C12.8231 18.8232 13.298 18.8232 13.5909 18.5303L24.5303 7.591C24.8231 7.29813 24.8231 6.82325 24.5303 6.53031L23.4697 5.46975C23.1768 5.17681 22.7019 5.17681 22.4091 5.46969ZM14.1119 13.7669C12.6036 12.1943 12.6414 9.69837 14.1719 8.17188C15.7107 6.63306 18.2029 6.61175 19.7669 8.11187L14.1119 13.7669ZM23 12C22.4477 12 22 12.4477 22 13C22 13.5523 22.4477 14 23 14C23.5523 14 24 13.5523 24 13C24 12.4477 23.5523 12 23 12ZM27 14C27.5523 14 28 13.5523 28 13C28 12.4477 27.5523 12 27 12C26.4477 12 26 12.4477 26 13C26 13.5523 26.4477 14 27 14ZM31 12C30.4477 12 30 12.4477 30 13C30 13.5523 30.4477 14 31 14C31.5523 14 32 13.5523 32 13C32 12.4477 31.5523 12 31 12ZM21 14C20.4477 14 20 14.4477 20 15C20 15.5523 20.4477 16 21 16C21.5523 16 22 15.5523 22 15C22 14.4477 21.5523 14 21 14ZM24 15C24 15.5523 24.4477 16 25 16C25.5523 16 26 15.5523 26 15C26 14.4477 25.5523 14 25 14C24.4477 14 24 14.4477 24 15ZM29 14C28.4477 14 28 14.4477 28 15C28 15.5523 28.4477 16 29 16C29.5523 16 30 15.5523 30 15C30 14.4477 29.5523 14 29 14ZM19 16C18.4477 16 18 16.4477 18 17C18 17.5523 18.4477 18 19 18C19.5523 18 20 17.5523 20 17C20 16.4477 19.5523 16 19 16ZM23 18C23.5523 18 24 17.5523 24 17C24 16.4477 23.5523 16 23 16C22.4477 16 22 16.4477 22 17C22 17.5523 22.4477 18 23 18ZM27 16C26.4477 16 26 16.4477 26 17C26 17.5523 26.4477 18 27 18C27.5523 18 28 17.5523 28 17C28 16.4477 27.5523 16 27 16ZM21 20C21.5523 20 22 19.5523 22 19C22 18.4477 21.5523 18 21 18C20.4477 18 20 18.4477 20 19C20 19.5523 20.4477 20 21 20ZM25 18C24.4477 18 24 18.4477 24 19C24 19.5523 24.4477 20 25 20C25.5523 20 26 19.5523 26 19C26 18.4477 25.5523 18 25 18ZM19 20C18.4477 20 18 20.4477 18 21C18 21.5523 18.4477 22 19 22C19.5523 22 20 21.5523 20 21C20 20.4477 19.5523 20 19 20ZM23 20C22.4477 20 22 20.4477 22 21C22 21.5523 22.4477 22 23 22C23.5523 22 24 21.5523 24 21C24 20.4477 23.5523 20 23 20ZM21 22C20.4477 22 20 22.4477 20 23C20 23.5523 20.4477 24 21 24C21.5523 24 22 23.5523 22 23C22 22.4477 21.5523 22 21 22ZM19 24C18.4477 24 18 24.4477 18 25C18 25.5523 18.4477 26 19 26C19.5523 26 20 25.5523 20 25C20 24.4477 19.5523 24 19 24Z" fill="#98A2B3"/>
</svg>
