<svg width="32" height="32" viewBox="0 0 32 32" fill="none" xmlns="http://www.w3.org/2000/svg">
<g clip-path="url(#clip0_103_1690)">
<path d="M25.3333 2.66675H6.66667C2.99067 2.66675 0 5.65741 0 9.33341V28.0001C0 28.7374 0.597333 29.3334 1.33333 29.3334C2.06933 29.3334 2.66667 28.7374 2.66667 28.0001V25.3334H29.3333V28.0001C29.3333 28.7374 29.9293 29.3334 30.6667 29.3334C31.404 29.3334 32 28.7374 32 28.0001V9.33341C32 5.65741 29.0093 2.66675 25.3333 2.66675ZM6.66667 5.33341H25.3333C27.5387 5.33341 29.3333 7.12808 29.3333 9.33341V17.3334H26.6667C26.6667 14.3921 24.2747 12.0001 21.3333 12.0001H20C18.408 12.0001 16.9787 12.7014 16 13.8094C15.0213 12.7001 13.592 12.0001 12 12.0001H10.6667C7.72533 12.0001 5.33333 14.3921 5.33333 17.3334H2.66667V9.33341C2.66667 7.12808 4.46133 5.33341 6.66667 5.33341ZM17.3333 17.3334C17.3333 15.8627 18.5293 14.6667 20 14.6667H21.3333C22.804 14.6667 24 15.8627 24 17.3334H17.3333ZM8 17.3334C8 15.8627 9.196 14.6667 10.6667 14.6667H12C13.4707 14.6667 14.6667 15.8627 14.6667 17.3334H8ZM2.66667 22.6667V20.0001H29.3333V22.6667H2.66667Z" fill="#98A2B3"/>
</g>
<defs>
<clipPath id="clip0_103_1690">
<rect width="32" height="32" fill="white"/>
</clipPath>
</defs>
</svg>
