<svg width="16" height="16" viewBox="0 0 16 16" fill="none" xmlns="http://www.w3.org/2000/svg">
<path d="M13.1887 8.05259C13.0793 7.66192 12.956 7.24859 12.8187 6.80392C12.412 5.68273 12.1372 4.518 12 3.33325C12 3.15644 12.0702 2.98687 12.1953 2.86185C12.3203 2.73682 12.4899 2.66659 12.6667 2.66659C12.8435 2.66659 13.013 2.73682 13.1381 2.86185C13.2631 2.98687 13.3333 3.15644 13.3333 3.33325C13.3333 3.51006 13.4036 3.67963 13.5286 3.80466C13.6536 3.92968 13.8232 3.99992 14 3.99992C14.1768 3.99992 14.3464 3.92968 14.4714 3.80466C14.5964 3.67963 14.6667 3.51006 14.6667 3.33325C14.6667 2.80282 14.4559 2.29411 14.0809 1.91904C13.7058 1.54397 13.1971 1.33325 12.6667 1.33325C12.1362 1.33325 11.6275 1.54397 11.2524 1.91904C10.8774 2.29411 10.6667 2.80282 10.6667 3.33325C10.6832 3.84232 10.7545 4.34812 10.8793 4.84192L7.67933 7.33325L3.98066 4.66659H6C6.17681 4.66659 6.34638 4.59635 6.4714 4.47132C6.59643 4.3463 6.66666 4.17673 6.66666 3.99992C6.66666 3.82311 6.59643 3.65354 6.4714 3.52851C6.34638 3.40349 6.17681 3.33325 6 3.33325H3.98066C3.70371 3.33317 3.43382 3.42069 3.20962 3.58328C2.98542 3.74588 2.81839 3.97522 2.73243 4.2385C2.64647 4.50178 2.64598 4.7855 2.73104 5.04907C2.8161 5.31264 2.98235 5.54256 3.206 5.70592L6.58666 8.18059L5.628 8.92659C5.03252 8.36594 4.2502 8.04618 3.43251 8.02923C2.61481 8.01227 1.81991 8.29932 1.20171 8.8348C0.583504 9.37028 0.185977 10.1161 0.0860935 10.9278C-0.0137896 11.7396 0.191077 12.5595 0.661027 13.2289C1.13098 13.8983 1.83258 14.3695 2.62999 14.5512C3.42741 14.733 4.26391 14.6125 4.97753 14.2129C5.69116 13.8133 6.23114 13.1632 6.49294 12.3883C6.75473 11.6135 6.71972 10.7691 6.39466 10.0186L11.254 6.23925C11.348 6.55659 11.7387 7.82859 11.8247 8.12125C11.0278 8.32931 10.3363 8.82532 9.88388 9.51346C9.43141 10.2016 9.25006 11.033 9.37485 11.8471C9.49964 12.6611 9.92173 13.4001 10.5596 13.9211C11.1974 14.4421 12.0057 14.7082 12.8283 14.668C13.6509 14.6278 14.4293 14.2841 15.0133 13.7034C15.5973 13.1227 15.9453 12.3461 15.9901 11.5238C16.035 10.7014 15.7734 9.89164 15.256 9.2509C14.7385 8.61016 14.002 8.18394 13.1887 8.05459V8.05259ZM3.33333 13.3333C2.93777 13.3333 2.55109 13.216 2.22219 12.9962C1.89329 12.7764 1.63695 12.4641 1.48557 12.0986C1.3342 11.7332 1.29459 11.331 1.37176 10.9431C1.44893 10.5551 1.63941 10.1987 1.91912 9.91904C2.19882 9.63933 2.55519 9.44885 2.94315 9.37168C3.33111 9.29451 3.73324 9.33412 4.0987 9.48549C4.46415 9.63687 4.77651 9.89321 4.99627 10.2221C5.21603 10.551 5.33333 10.9377 5.33333 11.3333C5.33333 11.8637 5.12262 12.3724 4.74754 12.7475C4.37247 13.1225 3.86376 13.3333 3.33333 13.3333ZM12.6667 13.3333C12.2711 13.3333 11.8844 13.216 11.5555 12.9962C11.2266 12.7764 10.9703 12.4641 10.8189 12.0986C10.6675 11.7332 10.6279 11.331 10.7051 10.9431C10.7823 10.5551 10.9727 10.1987 11.2524 9.91904C11.5322 9.63933 11.8885 9.44885 12.2765 9.37168C12.6644 9.29451 13.0666 9.33412 13.432 9.48549C13.7975 9.63687 14.1098 9.89321 14.3296 10.2221C14.5494 10.551 14.6667 10.9377 14.6667 11.3333C14.6667 11.8637 14.4559 12.3724 14.0809 12.7475C13.7058 13.1225 13.1971 13.3333 12.6667 13.3333Z" fill="#FFB55F"/>
</svg>
