<svg width="84" height="84" viewBox="0 0 84 84" fill="none" xmlns="http://www.w3.org/2000/svg">
<rect x="0.5" y="0.5" width="83" height="83" rx="9.5" fill="url(#paint0_linear_103_1675)"/>
<g clip-path="url(#clip0_103_1675)">
<path d="M53.8667 31.7213C53.3971 30.4362 52.5443 29.3263 51.4235 28.5416C50.3028 27.7568 48.9682 27.335 47.6 27.3333H36.4C35.0318 27.335 33.6972 27.7568 32.5765 28.5416C31.4558 29.3263 30.603 30.4362 30.1333 31.7213L26.5333 41.6239C26.1793 42.5992 25.9988 43.629 26 44.6666V45.9999C26.0024 47.0303 26.2446 48.046 26.7074 48.9666C27.1703 49.8872 27.8411 50.6874 28.6667 51.3039C28.6667 51.3146 28.6667 51.3226 28.6667 51.3333V53.9999C28.6667 55.0608 29.0881 56.0782 29.8382 56.8283C30.5884 57.5785 31.6058 57.9999 32.6667 57.9999C33.7275 57.9999 34.745 57.5785 35.4951 56.8283C36.2452 56.0782 36.6667 55.0608 36.6667 53.9999V52.6666H47.3333V53.9999C47.3333 55.0608 47.7548 56.0782 48.5049 56.8283C49.2551 57.5785 50.2725 57.9999 51.3333 57.9999C52.3942 57.9999 53.4116 57.5785 54.1618 56.8283C54.9119 56.0782 55.3333 55.0608 55.3333 53.9999V51.3333C55.3333 51.3226 55.3333 51.3146 55.3333 51.3039C56.159 50.6874 56.8297 49.8872 57.2926 48.9666C57.7554 48.046 57.9976 47.0303 58 45.9999V44.6666C58.0014 43.6294 57.8209 42.6001 57.4667 41.6253L53.8667 31.7213ZM32.6427 32.6333C32.9246 31.8628 33.4359 31.1973 34.1078 30.7265C34.7796 30.2556 35.5796 30.002 36.4 29.9999H47.6C48.4209 30.0015 49.2215 30.2548 49.8938 30.7257C50.5662 31.1966 51.0779 31.8624 51.36 32.6333L54.2773 40.6666H29.7213L32.6427 32.6333ZM34 53.9999C34 54.3535 33.8595 54.6927 33.6095 54.9427C33.3594 55.1928 33.0203 55.3333 32.6667 55.3333C32.3131 55.3333 31.9739 55.1928 31.7239 54.9427C31.4738 54.6927 31.3333 54.3535 31.3333 53.9999V52.5333C31.7722 52.6224 32.2189 52.667 32.6667 52.6666H34V53.9999ZM52.6667 53.9999C52.6667 54.3535 52.5262 54.6927 52.2762 54.9427C52.0261 55.1928 51.687 55.3333 51.3333 55.3333C50.9797 55.3333 50.6406 55.1928 50.3905 54.9427C50.1405 54.6927 50 54.3535 50 53.9999V52.6666H51.3333C51.7811 52.667 52.2278 52.6224 52.6667 52.5333V53.9999ZM55.3333 45.9999C55.3333 47.0608 54.9119 48.0782 54.1618 48.8283C53.4116 49.5785 52.3942 49.9999 51.3333 49.9999H32.6667C31.6058 49.9999 30.5884 49.5785 29.8382 48.8283C29.0881 48.0782 28.6667 47.0608 28.6667 45.9999V44.6666C28.6721 44.2176 28.7262 43.7706 28.828 43.3333H31.3333V44.6666C31.3333 45.0202 31.4738 45.3593 31.7239 45.6094C31.9739 45.8594 32.3131 45.9999 32.6667 45.9999C33.0203 45.9999 33.3594 45.8594 33.6095 45.6094C33.8595 45.3593 34 45.0202 34 44.6666V43.3333H50V44.6666C50 45.0202 50.1405 45.3593 50.3905 45.6094C50.6406 45.8594 50.9797 45.9999 51.3333 45.9999C51.687 45.9999 52.0261 45.8594 52.2762 45.6094C52.5262 45.3593 52.6667 45.0202 52.6667 44.6666V43.3333H55.172C55.2739 43.7705 55.328 44.2176 55.3333 44.6666V45.9999Z" fill="white"/>
</g>
<circle cx="70" cy="14" r="4" fill="#33F98A"/>
<circle cx="70" cy="14" r="5" stroke="#33F98A" stroke-opacity="0.1" stroke-width="2"/>
<rect x="0.5" y="0.5" width="83" height="83" rx="9.5" stroke="url(#paint1_linear_103_1675)"/>
<defs>
<linearGradient id="paint0_linear_103_1675" x1="42" y1="0" x2="42" y2="84" gradientUnits="userSpaceOnUse">
<stop stop-color="#221F2E"/>
<stop offset="1" stop-color="#161525"/>
</linearGradient>
<linearGradient id="paint1_linear_103_1675" x1="10.9565" y1="-3.35081e-07" x2="46.9414" y2="63.6585" gradientUnits="userSpaceOnUse">
<stop stop-color="white"/>
<stop offset="1" stop-color="#101020" stop-opacity="0"/>
</linearGradient>
<clipPath id="clip0_103_1675">
<rect width="32" height="32" fill="white" transform="translate(26 26)"/>
</clipPath>
</defs>
</svg>
