<svg width="32" height="32" viewBox="0 0 32 32" fill="none" xmlns="http://www.w3.org/2000/svg">
<g clip-path="url(#clip0_103_1676)">
<path d="M27.8667 5.72125C27.3971 4.43621 26.5443 3.32632 25.4235 2.54157C24.3028 1.75682 22.9682 1.33504 21.6 1.33325H10.4C9.03185 1.33504 7.69721 1.75682 6.57648 2.54157C5.45575 3.32632 4.60295 4.43621 4.13334 5.72125L0.53334 15.6239C0.179272 16.5992 -0.00123298 17.629 6.33849e-06 18.6666V19.9999C0.00238544 21.0303 0.244583 22.046 0.707426 22.9666C1.17027 23.8872 1.84105 24.6874 2.66667 25.3039C2.66667 25.3146 2.66667 25.3226 2.66667 25.3333V27.9999C2.66667 29.0608 3.0881 30.0782 3.83825 30.8283C4.58839 31.5785 5.60581 31.9999 6.66667 31.9999C7.72754 31.9999 8.74496 31.5785 9.4951 30.8283C10.2452 30.0782 10.6667 29.0608 10.6667 27.9999V26.6666H21.3333V27.9999C21.3333 29.0608 21.7548 30.0782 22.5049 30.8283C23.2551 31.5785 24.2725 31.9999 25.3333 31.9999C26.3942 31.9999 27.4116 31.5785 28.1618 30.8283C28.9119 30.0782 29.3333 29.0608 29.3333 27.9999V25.3333C29.3333 25.3226 29.3333 25.3146 29.3333 25.3039C30.159 24.6874 30.8297 23.8872 31.2926 22.9666C31.7554 22.046 31.9976 21.0303 32 19.9999V18.6666C32.0014 17.6294 31.8209 16.6001 31.4667 15.6253L27.8667 5.72125ZM6.64267 6.63325C6.92459 5.86281 7.43592 5.19731 8.10775 4.72646C8.77958 4.25561 9.57961 4.00204 10.4 3.99992H21.6C22.4209 4.00149 23.2215 4.25481 23.8938 4.7257C24.5662 5.19659 25.0779 5.86238 25.36 6.63325L28.2773 14.6666H3.72134L6.64267 6.63325ZM8.00001 27.9999C8.00001 28.3535 7.85953 28.6927 7.60948 28.9427C7.35943 29.1928 7.0203 29.3333 6.66667 29.3333C6.31305 29.3333 5.97391 29.1928 5.72386 28.9427C5.47382 28.6927 5.33334 28.3535 5.33334 27.9999V26.5333C5.77218 26.6224 6.21888 26.667 6.66667 26.6666H8.00001V27.9999ZM26.6667 27.9999C26.6667 28.3535 26.5262 28.6927 26.2762 28.9427C26.0261 29.1928 25.687 29.3333 25.3333 29.3333C24.9797 29.3333 24.6406 29.1928 24.3905 28.9427C24.1405 28.6927 24 28.3535 24 27.9999V26.6666H25.3333C25.7811 26.667 26.2278 26.6224 26.6667 26.5333V27.9999ZM29.3333 19.9999C29.3333 21.0608 28.9119 22.0782 28.1618 22.8283C27.4116 23.5785 26.3942 23.9999 25.3333 23.9999H6.66667C5.60581 23.9999 4.58839 23.5785 3.83825 22.8283C3.0881 22.0782 2.66667 21.0608 2.66667 19.9999V18.6666C2.67211 18.2176 2.7262 17.7706 2.82801 17.3333H5.33334V18.6666C5.33334 19.0202 5.47382 19.3593 5.72386 19.6094C5.97391 19.8594 6.31305 19.9999 6.66667 19.9999C7.0203 19.9999 7.35943 19.8594 7.60948 19.6094C7.85953 19.3593 8.00001 19.0202 8.00001 18.6666V17.3333H24V18.6666C24 19.0202 24.1405 19.3593 24.3905 19.6094C24.6406 19.8594 24.9797 19.9999 25.3333 19.9999C25.687 19.9999 26.0261 19.8594 26.2762 19.6094C26.5262 19.3593 26.6667 19.0202 26.6667 18.6666V17.3333H29.172C29.2739 17.7705 29.328 18.2176 29.3333 18.6666V19.9999Z" fill="white"/>
</g>
<defs>
<clipPath id="clip0_103_1676">
<rect width="32" height="32" fill="white"/>
</clipPath>
</defs>
</svg>
