<svg width="16" height="16" viewBox="0 0 16 16" fill="none" xmlns="http://www.w3.org/2000/svg">
<g clip-path="url(#clip0_103_1704)">
<path d="M15.1722 1.15836C15.0917 0.977805 14.9333 0.888916 14.775 0.888916C14.6278 0.888916 14.4778 0.966694 14.3861 1.12503C13.525 2.62225 11.9833 3.55558 10.2222 3.55558H8.00001C5.05556 3.55558 2.66668 5.94447 2.66668 8.88892C2.66668 9.38336 2.7389 9.85836 2.8639 10.3111C0.805564 12.1028 0.0500084 14.1889 0.0361195 14.2278C-0.0833249 14.575 0.100008 14.9556 0.447231 15.075C0.836119 15.2084 1.1889 14.9695 1.29445 14.6639C1.30556 14.6334 1.87779 13.0667 3.4139 11.6056C4.45834 13.3611 6.43056 14.4167 8.56667 14.1917C12.9306 13.875 16 9.96392 16 5.17503C16 3.78058 15.7 2.33614 15.1722 1.15836ZM8.42779 12.8667C6.03612 13.1195 4.80001 11.3528 4.47779 10.7417C5.79445 9.82781 7.5889 9.11114 10.0028 9.11114C10.3695 9.11114 10.6695 8.81114 10.6695 8.44447C10.6695 8.07781 10.3695 7.77781 10.0028 7.77781C7.46667 7.77781 5.52779 8.48614 4.05834 9.4278C4.03334 9.25003 4.00279 9.07225 4.00279 8.88892C4.00279 6.68336 5.79723 4.88892 8.00279 4.88892H10.225C11.8333 4.88892 13.325 4.27781 14.4472 3.19725C14.5917 3.84169 14.6695 4.51669 14.6695 5.17503C14.6667 9.36947 12.0611 12.6028 8.42779 12.8667Z" fill="#0BFF8A"/>
</g>
<defs>
<clipPath id="clip0_103_1704">
<rect width="16" height="16" fill="white"/>
</clipPath>
</defs>
</svg>
