<svg width="20" height="20" viewBox="0 0 20 20" fill="none" xmlns="http://www.w3.org/2000/svg">
<g clip-path="url(#clip0_105_1509)">
<path d="M15.8333 0.833252H4.16667C3.062 0.834575 2.00296 1.27399 1.22185 2.0551C0.440735 2.83622 0.00132321 3.89526 0 4.99992L0 11.6666C0.00132321 12.7712 0.440735 13.8303 1.22185 14.6114C2.00296 15.3925 3.062 15.8319 4.16667 15.8333H9.16667V17.4999H5.83333C5.61232 17.4999 5.40036 17.5877 5.24408 17.744C5.0878 17.9003 5 18.1122 5 18.3333C5 18.5543 5.0878 18.7662 5.24408 18.9225C5.40036 19.0788 5.61232 19.1666 5.83333 19.1666H14.1667C14.3877 19.1666 14.5996 19.0788 14.7559 18.9225C14.9122 18.7662 15 18.5543 15 18.3333C15 18.1122 14.9122 17.9003 14.7559 17.744C14.5996 17.5877 14.3877 17.4999 14.1667 17.4999H10.8333V15.8333H15.8333C16.938 15.8319 17.997 15.3925 18.7782 14.6114C19.5593 13.8303 19.9987 12.7712 20 11.6666V4.99992C19.9987 3.89526 19.5593 2.83622 18.7782 2.0551C17.997 1.27399 16.938 0.834575 15.8333 0.833252ZM4.16667 2.49992H15.8333C16.4964 2.49992 17.1323 2.76331 17.6011 3.23215C18.0699 3.70099 18.3333 4.33688 18.3333 4.99992V10.8333H1.66667V4.99992C1.66667 4.33688 1.93006 3.70099 2.3989 3.23215C2.86774 2.76331 3.50363 2.49992 4.16667 2.49992ZM15.8333 14.1666H4.16667C3.65145 14.1644 3.14948 14.0032 2.72942 13.7048C2.30936 13.4065 1.99174 12.9857 1.82 12.4999H18.18C18.0083 12.9857 17.6906 13.4065 17.2706 13.7048C16.8505 14.0032 16.3486 14.1644 15.8333 14.1666Z" fill="#FFA78F"/>
</g>
<defs>
<clipPath id="clip0_105_1509">
<rect width="20" height="20" fill="white"/>
</clipPath>
</defs>
</svg>
