<svg width="24" height="24" viewBox="0 0 24 24" fill="none" xmlns="http://www.w3.org/2000/svg">
<g clip-path="url(#clip0_105_216)">
<path d="M11.24 24.0001C10.9124 23.9989 10.5889 23.9265 10.292 23.7881C9.807 23.5721 9.41749 23.1865 9.19655 22.7038C8.97562 22.221 8.93844 21.6743 9.09199 21.1661L10.653 16.0001H6.97499C6.5064 16.0006 6.04418 15.8914 5.6254 15.6812C5.20661 15.4709 4.8429 15.1655 4.56341 14.7894C4.28392 14.4133 4.09642 13.9769 4.01595 13.5153C3.93547 13.0536 3.96426 12.5796 4.09999 12.1311L7.12399 2.13105C7.30832 1.51253 7.68828 0.970475 8.20684 0.58624C8.72541 0.202005 9.3546 -0.00368163 9.99999 4.98893e-05H13.693C14.1127 0.000401032 14.5262 0.102376 14.8979 0.29726C15.2697 0.492143 15.5888 0.774141 15.8279 1.11915C16.0669 1.46417 16.2189 1.86193 16.2709 2.27847C16.3228 2.695 16.2731 3.11791 16.126 3.51105L14.443 8.00005H17C17.545 8.00001 18.0798 8.14846 18.5469 8.42946C19.0139 8.71046 19.3955 9.11338 19.6508 9.59496C19.9061 10.0765 20.0254 10.6186 19.9958 11.1628C19.9662 11.7071 19.789 12.233 19.483 12.6841L13.083 22.9841C12.8851 23.2939 12.6128 23.5492 12.2909 23.7267C11.9689 23.9042 11.6076 23.9982 11.24 24.0001ZM9.99999 2.00005C9.78524 1.99984 9.57613 2.06877 9.40359 2.19664C9.23106 2.32451 9.10427 2.50453 9.04199 2.71005L6.01799 12.7101C5.97272 12.8595 5.96305 13.0174 5.98978 13.1712C6.0165 13.325 6.07887 13.4705 6.17189 13.5959C6.26491 13.7212 6.386 13.8231 6.52546 13.8933C6.66491 13.9635 6.81887 14 6.97499 14.0001H12C12.1561 14.0001 12.3101 14.0366 12.4495 14.1068C12.589 14.177 12.7101 14.2789 12.8031 14.4042C12.8961 14.5296 12.9585 14.6751 12.9852 14.8289C13.0119 14.9827 13.0023 15.1406 12.957 15.2901L11.01 21.7321C11.001 21.7558 10.997 21.7811 10.9983 21.8064C10.9996 21.8317 11.0061 21.8565 11.0175 21.8791C11.0289 21.9018 11.0449 21.9219 11.0644 21.938C11.0839 21.9542 11.1066 21.9661 11.131 21.9731C11.1531 21.9872 11.1779 21.9966 11.2039 22.0006C11.2298 22.0046 11.2563 22.0031 11.2817 21.9962C11.307 21.9893 11.3306 21.9772 11.351 21.9607C11.3714 21.9441 11.3881 21.9235 11.4 21.9001L17.8 11.6001C17.9119 11.4483 17.9786 11.2679 17.9924 11.0798C18.0062 10.8917 17.9666 10.7036 17.878 10.5371C17.7959 10.3749 17.6703 10.2387 17.5153 10.1439C17.3602 10.049 17.1818 9.99922 17 10.0001H13C12.8384 10.0002 12.6791 9.96108 12.5359 9.88617C12.3927 9.81127 12.2698 9.70276 12.1777 9.56996C12.0855 9.43715 12.027 9.284 12.007 9.12361C11.9871 8.96323 12.0063 8.80039 12.063 8.64905L14.253 2.80905C14.2866 2.71851 14.2979 2.62118 14.2859 2.52534C14.2739 2.42949 14.2389 2.33797 14.1839 2.25855C14.1289 2.17913 14.0556 2.11415 13.9701 2.06915C13.8847 2.02414 13.7896 2.00044 13.693 2.00005H9.99999Z" fill="#98A2B3"/>
</g>
<defs>
<clipPath id="clip0_105_216">
<rect width="24" height="24" fill="white"/>
</clipPath>
</defs>
</svg>
