<svg width="19" height="19" viewBox="0 0 19 19" fill="none" xmlns="http://www.w3.org/2000/svg">
<g clip-path="url(#clip0_105_1381)">
<path d="M2.82031 3.33984C3.12774 3.33984 3.37695 3.09063 3.37695 2.7832C3.37695 2.47578 3.12774 2.22656 2.82031 2.22656C2.51289 2.22656 2.26367 2.47578 2.26367 2.7832C2.26367 3.09063 2.51289 3.33984 2.82031 3.33984Z" fill="#3AFFF3"/>
<path d="M5.04688 3.33984C5.3543 3.33984 5.60352 3.09063 5.60352 2.7832C5.60352 2.47578 5.3543 2.22656 5.04688 2.22656C4.73945 2.22656 4.49023 2.47578 4.49023 2.7832C4.49023 3.09063 4.73945 3.33984 5.04688 3.33984Z" fill="#3AFFF3"/>
<path d="M7.27344 3.33984C7.58086 3.33984 7.83008 3.09063 7.83008 2.7832C7.83008 2.47578 7.58086 2.22656 7.27344 2.22656C6.96601 2.22656 6.7168 2.47578 6.7168 2.7832C6.7168 3.09063 6.96601 3.33984 7.27344 3.33984Z" fill="#3AFFF3"/>
<path d="M17.3301 0H1.66992C0.749127 0 0 0.749127 0 1.66992V17.3301C0 18.2509 0.749127 19 1.66992 19H17.3301C18.2509 19 19 18.2509 19 17.3301V1.66992C19 0.749127 18.2509 0 17.3301 0ZM17.8867 17.3301C17.8867 17.637 17.637 17.8867 17.3301 17.8867H1.66992C1.36299 17.8867 1.11328 17.637 1.11328 17.3301V1.66992C1.11328 1.36299 1.36299 1.11328 1.66992 1.11328H17.3301C17.637 1.11328 17.8867 1.36299 17.8867 1.66992V17.3301Z" fill="#3AFFF3"/>
<path d="M16.1797 2.22656H13.9531C13.6457 2.22656 13.3965 2.47579 13.3965 2.7832C13.3965 3.09062 13.6457 3.33984 13.9531 3.33984H16.1797C16.4871 3.33984 16.7363 3.09062 16.7363 2.7832C16.7363 2.47579 16.4871 2.22656 16.1797 2.22656Z" fill="#3AFFF3"/>
</g>
<defs>
<clipPath id="clip0_105_1381">
<rect width="19" height="19" fill="white"/>
</clipPath>
</defs>
</svg>
