<svg width="16" height="16" viewBox="0 0 16 16" fill="none" xmlns="http://www.w3.org/2000/svg">
<g clip-path="url(#clip0_105_1147)">
<path d="M9.5 1.5C9.5 2.32844 8.82844 3 8 3C7.17156 3 6.5 2.32844 6.5 1.5C6.5 0.671562 7.17156 0 8 0C8.82844 0 9.5 0.671562 9.5 1.5ZM8 13C7.17156 13 6.5 13.6716 6.5 14.5C6.5 15.3284 7.17156 16 8 16C8.82844 16 9.5 15.3284 9.5 14.5C9.5 13.6716 8.82844 13 8 13ZM14.5 6.5C13.6716 6.5 13 7.17156 13 8C13 8.82844 13.6716 9.5 14.5 9.5C15.3284 9.5 16 8.82844 16 8C16 7.17156 15.3284 6.5 14.5 6.5ZM3 8C3 7.17156 2.32844 6.5 1.5 6.5C0.671562 6.5 0 7.17156 0 8C0 8.82844 0.671562 9.5 1.5 9.5C2.32844 9.5 3 8.82844 3 8ZM3.40381 11.0962C2.57537 11.0962 1.90381 11.7677 1.90381 12.5962C1.90381 13.4246 2.57537 14.0962 3.40381 14.0962C4.23225 14.0962 4.90381 13.4246 4.90381 12.5962C4.90381 11.7678 4.23222 11.0962 3.40381 11.0962ZM12.5962 11.0962C11.7677 11.0962 11.0962 11.7677 11.0962 12.5962C11.0962 13.4246 11.7677 14.0962 12.5962 14.0962C13.4246 14.0962 14.0962 13.4246 14.0962 12.5962C14.0962 11.7678 13.4246 11.0962 12.5962 11.0962ZM3.40381 1.90381C2.57537 1.90381 1.90381 2.57537 1.90381 3.40381C1.90381 4.23225 2.57537 4.90381 3.40381 4.90381C4.23225 4.90381 4.90381 4.23225 4.90381 3.40381C4.90381 2.57537 4.23222 1.90381 3.40381 1.90381Z" fill="#33FBF3"/>
</g>
<defs>
<clipPath id="clip0_105_1147">
<rect width="16" height="16" fill="white"/>
</clipPath>
</defs>
</svg>
