<svg width="16" height="16" viewBox="0 0 16 16" fill="none" xmlns="http://www.w3.org/2000/svg">
<g clip-path="url(#clip0_104_172)">
<path d="M5.33333 7.33335H1.86133L3.322 3.31668C3.608 2.52935 4.36333 2.00002 5.20133 2.00002H10.7987C11.6367 2.00002 12.392 2.52868 12.678 3.31668L13.7373 6.22802C13.8627 6.57402 14.2473 6.75335 14.5913 6.62668C14.938 6.50068 15.116 6.11802 14.99 5.77202L13.9307 2.86068C13.454 1.54802 12.1953 0.666016 10.7987 0.666016H5.20133C3.80467 0.666016 2.546 1.54802 2.06867 2.86002L0.268 7.81202C0.09 8.30135 0 8.81335 0 9.33335V10C0 11.088 0.524 12.056 1.33333 12.6653V14C1.33333 15.1027 2.23067 16 3.33333 16C4.436 16 5.33333 15.1027 5.33333 14V12.6667C5.33333 12.2987 5.03467 12 4.66667 12H3.33333C2.23067 12 1.33333 11.1027 1.33333 10V9.33335C1.33333 9.10802 1.35733 8.88535 1.40533 8.66668H2.66667V9.33335C2.66667 9.70135 2.96533 10 3.33333 10C3.70133 10 4 9.70135 4 9.33335V8.66668H5.33333C5.70133 8.66668 6 8.36802 6 8.00002C6 7.63202 5.70133 7.33335 5.33333 7.33335ZM2.66667 13.266C2.882 13.31 3.10533 13.3333 3.33333 13.3333H4V14C4 14.3673 3.70067 14.6667 3.33333 14.6667C2.966 14.6667 2.66667 14.3673 2.66667 14V13.266ZM11.3333 6.66668C8.76067 6.66668 6.66667 8.76002 6.66667 11.3333C6.66667 13.9067 8.76067 16 11.3333 16C13.906 16 16 13.9067 16 11.3333C16 8.76002 13.906 6.66668 11.3333 6.66668ZM8 11.3333C8 9.66668 9.23 8.28135 10.83 8.03802C10.83 8.03802 9.394 10.564 9.38 10.612C9.282 10.9367 9.344 11.2927 9.546 11.5653C9.74867 11.838 10.0713 12 10.4107 12H11.8073L10.3633 14.522C8.99733 14.1053 8.00067 12.8333 8.00067 11.3333H8ZM11.838 14.6287L13.1547 12.3267C13.372 11.998 13.3913 11.578 13.2047 11.23C13.0187 10.8827 12.658 10.6667 12.2633 10.6667H10.8633L12.304 8.14468C13.67 8.56135 14.6667 9.83335 14.6667 11.3333C14.6667 12.9993 13.4373 14.3847 11.838 14.6287Z" fill="#00D1FF"/>
</g>
<defs>
<clipPath id="clip0_104_172">
<rect width="16" height="16" fill="white"/>
</clipPath>
</defs>
</svg>
