<svg width="24" height="24" viewBox="0 0 24 24" fill="none" xmlns="http://www.w3.org/2000/svg">
<path d="M23.121 9.06911L15.536 1.48311C14.5972 0.5471 13.3257 0.0214844 12 0.0214844C10.6743 0.0214844 9.40275 0.5471 8.464 1.48311L0.878997 9.06911C0.599422 9.3469 0.377767 9.67741 0.226879 10.0415C0.075992 10.4056 -0.00112566 10.796 -3.17931e-06 11.1901V21.0071C-3.17931e-06 21.8028 0.316067 22.5658 0.878677 23.1284C1.44129 23.691 2.20435 24.0071 3 24.0071H21C21.7956 24.0071 22.5587 23.691 23.1213 23.1284C23.6839 22.5658 24 21.8028 24 21.0071V11.1901C24.0011 10.796 23.924 10.4056 23.7731 10.0415C23.6222 9.67741 23.4006 9.3469 23.121 9.06911ZM15 22.0071H9V18.0731C9 17.2775 9.31607 16.5144 9.87868 15.9518C10.4413 15.3892 11.2043 15.0731 12 15.0731C12.7956 15.0731 13.5587 15.3892 14.1213 15.9518C14.6839 16.5144 15 17.2775 15 18.0731V22.0071ZM22 21.0071C22 21.2723 21.8946 21.5267 21.7071 21.7142C21.5196 21.9018 21.2652 22.0071 21 22.0071H17V18.0731C17 16.747 16.4732 15.4753 15.5355 14.5376C14.5979 13.5999 13.3261 13.0731 12 13.0731C10.6739 13.0731 9.40215 13.5999 8.46446 14.5376C7.52678 15.4753 7 16.747 7 18.0731V22.0071H3C2.73478 22.0071 2.48043 21.9018 2.29289 21.7142C2.10535 21.5267 2 21.2723 2 21.0071V11.1901C2.00092 10.9251 2.10619 10.6711 2.293 10.4831L9.878 2.90011C10.4417 2.33904 11.2047 2.02405 12 2.02405C12.7953 2.02405 13.5583 2.33904 14.122 2.90011L21.707 10.4861C21.8931 10.6734 21.9983 10.9261 22 11.1901V21.0071Z" fill="#98A2B3"/>
</svg>
