<svg width="32" height="32" viewBox="0 0 32 32" fill="none" xmlns="http://www.w3.org/2000/svg">
<g clip-path="url(#clip0_103_1685)">
<path d="M22.1733 3.86662C21.124 2.97731 20.024 2.04262 18.904 1.02393C18.0448 0.242558 16.8844 -0.119568 15.7333 0.03462C14.6178 0.181995 13.6253 0.816933 13.024 1.76793C11.4346 4.42393 10.3109 7.332 9.70131 10.3666C9.46213 10.0212 9.24994 9.658 9.06663 9.27993C8.43513 7.94943 6.84463 7.38275 5.51413 8.01425C5.192 8.16712 4.90381 8.38306 4.66663 8.64925C2.43019 10.9346 1.19038 14.0131 1.21863 17.2106C1.15506 23.9313 5.67575 29.832 12.1813 31.5199C13.3918 31.8245 14.6345 31.9821 15.8826 31.9893C15.9226 31.9893 16.3479 31.9852 16.5199 31.9732C24.4799 31.7154 30.7966 25.1827 30.7866 17.2186C30.7813 11.1786 26.792 7.79193 22.1733 3.86662ZM15.8493 29.3132C14.857 29.2377 13.8764 28.8358 13.136 28.2386C11.9766 27.4182 11.2094 26.2152 11.0267 24.8293C10.8 22.6666 12.1334 19.8386 14.8574 16.6439C15.143 16.3103 15.5609 16.1191 16.0001 16.1212C16.4336 16.1181 16.8458 16.3088 17.1241 16.6412C19.6201 19.6039 20.9908 22.3372 20.9908 24.3386C20.9831 26.9679 18.9279 29.0479 16.3108 29.3013C16.1958 29.3124 16 29.3292 15.8493 29.3132ZM23.4347 26.7773C23.356 26.8386 23.2694 26.8879 23.1894 26.9466C23.497 26.1104 23.6554 25.2268 23.6574 24.3359C23.6574 20.9666 21.2107 17.3559 19.1601 14.9199C18.3755 13.9907 17.2215 13.4542 16.0054 13.4532H16C14.7814 13.451 13.6233 13.9838 12.832 14.9105C9.572 18.7292 8.07469 22.1598 8.38131 25.1078C8.45413 25.7922 8.62894 26.4618 8.9 27.0945C5.73388 24.8004 3.86831 21.1203 3.88931 17.2105C3.86356 14.6706 4.86519 12.2279 6.66663 10.4372C6.97419 11.0766 7.3435 11.6843 7.76931 12.2519C8.35413 13.0425 9.35319 13.4094 10.3106 13.1852C11.2868 12.9692 12.0448 12.1993 12.2453 11.2199C12.781 8.38837 13.8047 5.6715 15.2706 3.19056C15.451 2.90693 15.7489 2.71906 16.0826 2.67856C16.4556 2.62837 16.8315 2.74606 17.1093 2.99987C18.2533 4.03987 19.376 4.99987 20.4426 5.90256C24.8933 9.68256 28.1106 12.4132 28.1106 17.2186C28.1221 20.9581 26.3959 24.4909 23.4386 26.7799L23.4347 26.7773Z" fill="#98A2B3"/>
</g>
<defs>
<clipPath id="clip0_103_1685">
<rect width="32" height="32" fill="white"/>
</clipPath>
</defs>
</svg>
