<svg width="20" height="20" viewBox="0 0 20 20" fill="none" xmlns="http://www.w3.org/2000/svg">
<g clip-path="url(#clip0_105_1513)">
<path d="M12.5 20H7.49998C5.20248 20 3.33331 18.1308 3.33331 15.8333V4.16667C3.33331 1.86917 5.20248 0 7.49998 0H12.5C14.7975 0 16.6666 1.86917 16.6666 4.16667V15.8333C16.6666 18.1308 14.7975 20 12.5 20ZM7.49998 1.66667C6.12165 1.66667 4.99998 2.78833 4.99998 4.16667V15.8333C4.99998 17.2117 6.12165 18.3333 7.49998 18.3333H12.5C13.8783 18.3333 15 17.2117 15 15.8333V4.16667C15 2.78833 13.8783 1.66667 12.5 1.66667H7.49998ZM11.6666 15.8333C11.6666 15.3733 11.2933 15 10.8333 15H9.16665C8.70665 15 8.33331 15.3733 8.33331 15.8333C8.33331 16.2933 8.70665 16.6667 9.16665 16.6667H10.8333C11.2933 16.6667 11.6666 16.2933 11.6666 15.8333Z" fill="#3AFFF3"/>
</g>
<defs>
<clipPath id="clip0_105_1513">
<rect width="20" height="20" fill="white"/>
</clipPath>
</defs>
</svg>
