<svg width="24" height="25" viewBox="0 0 24 25" fill="none" xmlns="http://www.w3.org/2000/svg">
<g clip-path="url(#clip0_103_1370)">
<path d="M22.555 14.1619L20.655 7.32593C20.0981 5.32327 18.8877 3.56422 17.2163 2.3284C15.5449 1.09259 13.5084 0.450921 11.4305 0.505401C9.35252 0.559881 7.35241 1.30738 5.74806 2.62908C4.14372 3.95078 3.0272 5.77084 2.576 7.79993L1.105 14.4149C0.942515 15.1459 0.946272 15.904 1.11599 16.6333C1.28571 17.3625 1.61706 18.0444 2.08558 18.6285C2.5541 19.2126 3.14782 19.684 3.82291 20.0079C4.498 20.3318 5.23722 20.5 5.986 20.4999H7.1C7.32951 21.6302 7.94273 22.6464 8.83574 23.3763C9.72875 24.1062 10.8466 24.5049 12 24.5049C13.1534 24.5049 14.2712 24.1062 15.1643 23.3763C16.0573 22.6464 16.6705 21.6302 16.9 20.4999H17.738C18.5088 20.5 19.2692 20.3218 19.9598 19.9794C20.6503 19.6369 21.2523 19.1394 21.7188 18.5258C22.1853 17.9122 22.5036 17.199 22.6488 16.442C22.794 15.685 22.7613 14.9046 22.555 14.1619ZM12 22.4999C11.3817 22.4974 10.7794 22.3039 10.2753 21.9458C9.77123 21.5878 9.39008 21.0828 9.184 20.4999H14.816C14.6099 21.0828 14.2288 21.5878 13.7247 21.9458C13.2206 22.3039 12.6183 22.4974 12 22.4999ZM20.126 17.3149C19.8473 17.6846 19.4863 17.9842 19.0716 18.1899C18.6569 18.3956 18.1999 18.5018 17.737 18.4999H5.986C5.53678 18.4999 5.09332 18.3989 4.68834 18.2045C4.28336 18.0101 3.92721 17.7273 3.64616 17.3768C3.36512 17.0264 3.16636 16.6173 3.06456 16.1798C2.96276 15.7423 2.96052 15.2874 3.058 14.8489L4.528 8.23293C4.88235 6.63914 5.75931 5.20954 7.01946 4.17138C8.2796 3.13323 9.85062 2.54611 11.4828 2.50335C13.1149 2.46059 14.7145 2.96465 16.0273 3.9354C17.3401 4.90615 18.2907 6.28788 18.728 7.86093L20.628 14.6969C20.7535 15.1423 20.7735 15.6108 20.6864 16.0653C20.5993 16.5197 20.4074 16.9476 20.126 17.3149Z" fill="#98A2B3"/>
</g>
<defs>
<clipPath id="clip0_103_1370">
<rect width="24" height="24" fill="white" transform="translate(0 0.5)"/>
</clipPath>
</defs>
</svg>
