<svg width="20" height="20" viewBox="0 0 20 20" fill="none" xmlns="http://www.w3.org/2000/svg">
<g clip-path="url(#clip0_105_1577)">
<path d="M12.5 1.875C15.6066 1.875 18.125 4.3934 18.125 7.5C18.125 10.6066 15.6066 13.125 12.5 13.125C11.7591 13.125 11.0517 12.9814 10.4039 12.7211L8.75 14.375H7.5V16.25H5.625V18.125H1.875V14.375L7.11629 9.13371C6.9559 8.60398 6.87459 8.05348 6.875 7.5C6.875 4.3934 9.3934 1.875 12.5 1.875ZM12.5 0C8.35801 0 5 3.35758 5 7.5C5 7.845 5.02352 8.1884 5.07027 8.52805L0.27457 13.3238C0.0987752 13.4996 1.23919e-05 13.738 0 13.9867L0 19.0625C0 19.5803 0.419727 20 0.9375 20H6.5625C7.08027 20 7.5 19.5803 7.5 19.0625V18.125H8.4375C8.95527 18.125 9.375 17.7053 9.375 17.1875V16.4062L10.9394 14.8372C11.4495 14.9455 11.9711 15 12.5 15C16.642 15 20 11.6424 20 7.5C20 3.35801 16.6424 0 12.5 0ZM12.5 5.625C12.5 6.66055 13.3395 7.5 14.375 7.5C15.4105 7.5 16.25 6.66055 16.25 5.625C16.25 4.58945 15.4105 3.75 14.375 3.75C13.3395 3.75 12.5 4.58945 12.5 5.625Z" fill="white"/>
</g>
<defs>
<clipPath id="clip0_105_1577">
<rect width="20" height="20" fill="white"/>
</clipPath>
</defs>
</svg>
