<svg width="20" height="20" viewBox="0 0 20 20" fill="none" xmlns="http://www.w3.org/2000/svg">
<g clip-path="url(#clip0_105_1517)">
<path d="M6.66667 9.16669H2.32667L4.1525 4.14585C4.51 3.16169 5.45417 2.50002 6.50167 2.50002H13.4983C14.5458 2.50002 15.49 3.16085 15.8475 4.14585L17.1717 7.78502C17.3283 8.21752 17.8092 8.44169 18.2392 8.28335C18.6725 8.12585 18.895 7.64752 18.7375 7.21502L17.4133 3.57585C16.8175 1.93502 15.2442 0.83252 13.4983 0.83252H6.50167C4.75583 0.83252 3.1825 1.93502 2.58583 3.57502L0.335 9.76502C0.1125 10.3767 0 11.0167 0 11.6667V12.5C0 13.86 0.655 15.07 1.66667 15.8317V17.5C1.66667 18.8784 2.78833 20 4.16667 20C5.545 20 6.66667 18.8784 6.66667 17.5V15.8334C6.66667 15.3734 6.29333 15 5.83333 15H4.16667C2.78833 15 1.66667 13.8784 1.66667 12.5V11.6667C1.66667 11.385 1.69667 11.1067 1.75667 10.8334H3.33333V11.6667C3.33333 12.1267 3.70667 12.5 4.16667 12.5C4.62667 12.5 5 12.1267 5 11.6667V10.8334H6.66667C7.12667 10.8334 7.5 10.46 7.5 10C7.5 9.54002 7.12667 9.16669 6.66667 9.16669ZM3.33333 16.5825C3.6025 16.6375 3.88167 16.6667 4.16667 16.6667H5V17.5C5 17.9592 4.62583 18.3334 4.16667 18.3334C3.7075 18.3334 3.33333 17.9592 3.33333 17.5V16.5825ZM14.1667 8.33335C10.9508 8.33335 8.33333 10.95 8.33333 14.1667C8.33333 17.3834 10.9508 20 14.1667 20C17.3825 20 20 17.3834 20 14.1667C20 10.95 17.3825 8.33335 14.1667 8.33335ZM10 14.1667C10 12.0834 11.5375 10.3517 13.5375 10.0475C13.5375 10.0475 11.7425 13.205 11.725 13.265C11.6025 13.6709 11.68 14.1159 11.9325 14.4567C12.1858 14.7975 12.5892 15 13.0133 15H14.7592L12.9542 18.1525C11.2467 17.6317 10.0008 16.0417 10.0008 14.1667H10ZM14.7975 18.2859L16.4433 15.4084C16.715 14.9975 16.7392 14.4725 16.5058 14.0375C16.2733 13.6034 15.8225 13.3334 15.3292 13.3334H13.5792L15.38 10.1809C17.0875 10.7017 18.3333 12.2917 18.3333 14.1667C18.3333 16.2492 16.7967 17.9809 14.7975 18.2859Z" fill="#FFDA44"/>
</g>
<defs>
<clipPath id="clip0_105_1517">
<rect width="20" height="20" fill="white"/>
</clipPath>
</defs>
</svg>
