<svg width="24" height="24" viewBox="0 0 24 24" fill="none" xmlns="http://www.w3.org/2000/svg">
<g clip-path="url(#clip0_103_1414)">
<path d="M17.3426 2.18117C17.7303 2.34023 18.1736 2.15492 18.3327 1.7672L18.6282 1.04701C18.7872 0.659292 18.6019 0.216045 18.2142 0.0569859C17.8265 -0.102073 17.3832 0.0832446 17.2241 0.470962L16.9286 1.19115C16.7695 1.57882 16.9549 2.02212 17.3426 2.18117Z" fill="#98A2B3"/>
<path d="M11.1141 17.3619C10.7264 17.2029 10.2832 17.3882 10.1241 17.7758L9.82862 18.496C9.66956 18.8838 9.85492 19.327 10.2426 19.4861C10.6303 19.6452 11.0736 19.4598 11.2326 19.0721L11.5281 18.3519C11.6872 17.9642 11.5018 17.521 11.1141 17.3619Z" fill="#98A2B3"/>
<path d="M23.529 12.7673L22.8088 12.4718C22.4211 12.3127 21.9779 12.498 21.8188 12.8858C21.6597 13.2735 21.845 13.7167 22.2327 13.8758L22.9529 14.1713C23.3406 14.3304 23.7839 14.1451 23.943 13.7573C24.1021 13.3696 23.9167 12.9263 23.529 12.7673Z" fill="#98A2B3"/>
<path d="M4.92771 6.77597L5.6479 7.07146C6.03561 7.23052 6.47886 7.04515 6.63792 6.65748C6.79698 6.26976 6.61166 5.82652 6.22394 5.66741L5.50376 5.37193C5.11604 5.21287 4.67279 5.39819 4.51373 5.7859C4.35472 6.17362 4.53999 6.61687 4.92771 6.77597Z" fill="#98A2B3"/>
<path d="M21.7977 6.60645C21.9594 6.99308 22.4039 7.17544 22.7905 7.01379L23.5087 6.71346C23.8953 6.55181 24.0777 6.1073 23.916 5.72066C23.7543 5.33403 23.3099 5.15167 22.9232 5.31332L22.205 5.61365C21.8184 5.77534 21.636 6.21981 21.7977 6.60645Z" fill="url(#paint0_linear_103_1414)"/>
<path d="M5.66624 12.5294L4.94808 12.8297C4.56144 12.9914 4.37909 13.4359 4.54074 13.8225C4.70238 14.2091 5.1469 14.3915 5.53354 14.2299L6.25175 13.9296C6.63838 13.7679 6.82074 13.3234 6.65909 12.9368C6.49735 12.5501 6.05283 12.3677 5.66624 12.5294Z" fill="url(#paint1_linear_103_1414)"/>
<path d="M18.3863 17.7482C18.2247 17.3616 17.7801 17.1793 17.3935 17.3409C17.0069 17.5026 16.8245 17.9471 16.9862 18.3337L17.2865 19.0519C17.4481 19.4385 17.8927 19.6209 18.2792 19.4593C18.6659 19.2976 18.8483 18.8531 18.6866 18.4665L18.3863 17.7482Z" fill="url(#paint2_linear_103_1414)"/>
<path d="M11.0632 2.20215C11.4499 2.04046 11.6323 1.59599 11.4706 1.20935L11.1702 0.491188C11.0086 0.104553 10.5641 -0.0778472 10.1774 0.0838469C9.79081 0.245494 9.60846 0.690012 9.77011 1.07665L10.0704 1.79486C10.2321 2.18145 10.6766 2.3638 11.0632 2.20215Z" fill="url(#paint3_linear_103_1414)"/>
<path d="M14.2284 17.4654C18.4775 17.4654 21.9221 14.0208 21.9221 9.77162C21.9221 5.52249 18.4775 2.07788 14.2284 2.07788C9.97924 2.07788 6.53464 5.52249 6.53464 9.77162C6.53464 14.0208 9.97924 17.4654 14.2284 17.4654Z" fill="url(#paint4_linear_103_1414)"/>
<path d="M14.2284 17.4654C18.4775 17.4654 21.9221 14.0208 21.9221 9.77162C21.9221 5.52249 18.4775 2.07788 14.2284 2.07788C9.97924 2.07788 6.53464 5.52249 6.53464 9.77162C6.53464 14.0208 9.97924 17.4654 14.2284 17.4654Z" fill="url(#paint5_linear_103_1414)"/>
<path d="M18.3265 15.4989C18.4256 15.198 18.48 14.8767 18.48 14.5426C18.48 12.8552 17.1121 11.4874 15.4248 11.4874C14.932 11.4874 14.467 11.6047 14.0549 11.8119C13.129 9.76461 11.0688 8.34009 8.67581 8.34009C5.41704 8.34009 2.77529 10.9818 2.77529 14.2406C2.77529 14.743 2.83826 15.2306 2.95642 15.6963C1.24174 16.2445 0 17.8508 0 19.7474C0 22.096 1.90391 23.9999 4.25252 23.9999H18.1475C18.1475 23.9999 22.4 22.096 22.4 19.7474C22.4 17.4588 20.592 15.5927 18.3265 15.4989Z" fill="url(#paint6_linear_103_1414)"/>
<path d="M18.48 14.5427C18.48 14.8765 18.4264 15.1981 18.3272 15.4989C18.2679 15.4963 18.2077 15.495 18.1475 15.495C16.6362 15.495 15.3089 16.2838 14.5552 17.4719C13.2916 17.0977 12.3697 15.928 12.3697 14.5427C12.3697 12.8553 13.7374 11.4875 15.4249 11.4875C17.1123 11.4875 18.48 12.8553 18.48 14.5427Z" fill="url(#paint7_linear_103_1414)"/>
<path d="M13.8155 17.1402C12.8032 18.9318 10.8807 20.1409 8.67581 20.1409C5.41727 20.1409 2.77539 17.4995 2.77539 14.2405C2.77539 10.982 5.41727 8.34009 8.67581 8.34009C11.0687 8.34009 13.129 9.76446 14.0549 11.8112C13.0552 12.3132 12.3696 13.348 12.3696 14.5427C12.3696 15.6394 12.9476 16.6013 13.8155 17.1402Z" fill="url(#paint8_linear_103_1414)"/>
<path d="M0 19.7475C0 22.0961 1.90391 24 4.25252 24H18.1475C18.1475 24 22.4 22.0961 22.4 19.7475C22.4 19.292 22.3282 18.8535 22.1957 18.4421H0.204894C0.0722824 18.8535 0 19.292 0 19.7475Z" fill="url(#paint9_linear_103_1414)"/>
<path d="M19.9033 23.6216L11.8284 15.5467C11.3758 15.0146 10.6017 14.7273 9.688 14.7273C8.34739 14.7273 7.2319 15.3823 7.2319 17.1424V19.8544C7.2319 20.7397 7.51426 21.3452 7.96532 21.7287L10.2366 23.9999H18.1475C18.7736 23.9999 19.368 23.8646 19.9033 23.6216Z" fill="url(#paint10_linear_103_1414)"/>
<path d="M6.47892 14.7741C6.32518 14.5351 6.03939 14.4387 5.70508 14.4387C5.19798 14.4387 4.81012 14.6535 4.81012 15.2442V16.0914C4.81012 16.4188 4.9296 16.6303 5.12212 16.7542L12.3678 23.9999H15.7046L6.47892 14.7741Z" fill="url(#paint11_linear_103_1414)"/>
<path d="M5.65803 14.3916C5.15092 14.3916 4.76306 14.6064 4.76306 15.1971V16.0443C4.76306 16.635 5.15087 16.8498 5.65803 16.8498C6.15916 16.8498 6.55304 16.635 6.55304 16.0443V15.1971C6.55299 14.6064 6.15916 14.3916 5.65803 14.3916ZM5.95633 16.0443C5.95633 16.2412 5.84301 16.3307 5.65803 16.3307C5.47304 16.3307 5.3657 16.2412 5.3657 16.0443V15.1971C5.3657 15.0001 5.47304 14.9107 5.65803 14.9107C5.84301 14.9107 5.95633 15.0001 5.95633 15.1971V16.0443Z" fill="url(#paint12_linear_103_1414)"/>
<path d="M11.4012 19.3263C10.9918 19.3263 10.6438 19.4286 10.6131 19.8073C10.5824 20.2063 10.5313 20.8306 9.71256 20.8306C9.11901 20.8306 8.78132 20.5031 8.78132 19.8073V17.0953C8.78132 16.3994 9.11901 16.0719 9.70235 16.0719C10.5722 16.0719 10.6029 16.7269 10.6131 16.993C10.6336 17.3614 10.9816 17.474 11.4114 17.474C11.9537 17.474 12.2096 17.3307 12.2096 16.7166C12.2096 15.417 11.1044 14.6802 9.64094 14.6802C8.30033 14.6802 7.18484 15.3351 7.18484 17.0953V19.8073C7.18484 21.5675 8.30033 22.2224 9.64094 22.2224C11.1044 22.2224 12.2096 21.4447 12.2096 20.0836C12.2096 19.4695 11.9537 19.3263 11.4012 19.3263Z" fill="url(#paint13_linear_103_1414)"/>
</g>
<defs>
<linearGradient id="paint0_linear_103_1414" x1="21.118" y1="5.51148" x2="24.4794" y2="6.772" gradientUnits="userSpaceOnUse">
<stop stop-color="#F7E07D"/>
<stop offset="1" stop-color="#E69642"/>
</linearGradient>
<linearGradient id="paint1_linear_103_1414" x1="3.86097" y1="12.7275" x2="7.22238" y2="13.9881" gradientUnits="userSpaceOnUse">
<stop stop-color="#F7E07D"/>
<stop offset="1" stop-color="#E69642"/>
</linearGradient>
<linearGradient id="paint2_linear_103_1414" x1="16.1255" y1="17.7586" x2="19.4327" y2="18.9987" gradientUnits="userSpaceOnUse">
<stop stop-color="#F7E07D"/>
<stop offset="1" stop-color="#E69642"/>
</linearGradient>
<linearGradient id="paint3_linear_103_1414" x1="8.90954" y1="0.501447" x2="12.2166" y2="1.74159" gradientUnits="userSpaceOnUse">
<stop stop-color="#F7E07D"/>
<stop offset="1" stop-color="#E69642"/>
</linearGradient>
<linearGradient id="paint4_linear_103_1414" x1="10.0286" y1="5.57186" x2="16.6568" y2="12.2" gradientUnits="userSpaceOnUse">
<stop stop-color="#F7E07D"/>
<stop offset="1" stop-color="#E69642"/>
</linearGradient>
<linearGradient id="paint5_linear_103_1414" x1="14.9722" y1="7.77765" x2="12.6116" y2="14.106" gradientUnits="userSpaceOnUse">
<stop stop-color="#D52C1C" stop-opacity="0"/>
<stop offset="0.2813" stop-color="#CC2C20" stop-opacity="0.281"/>
<stop offset="0.7301" stop-color="#B52B2A" stop-opacity="0.73"/>
<stop offset="1" stop-color="#A42B31"/>
</linearGradient>
<linearGradient id="paint6_linear_103_1414" x1="3.36574" y1="11.5187" x2="15.2743" y2="23.4272" gradientUnits="userSpaceOnUse">
<stop stop-color="#EEF4FF"/>
<stop offset="1" stop-color="#CFE7FD"/>
</linearGradient>
<linearGradient id="paint7_linear_103_1414" x1="14.9333" y1="14.4797" x2="19.5147" y2="14.4797" gradientUnits="userSpaceOnUse">
<stop stop-color="#8AAADC" stop-opacity="0"/>
<stop offset="1" stop-color="#8AAADC"/>
</linearGradient>
<linearGradient id="paint8_linear_103_1414" x1="10.2784" y1="12.6541" x2="14.6706" y2="8.30583" gradientUnits="userSpaceOnUse">
<stop stop-color="#8AAADC" stop-opacity="0"/>
<stop offset="1" stop-color="#8AAADC"/>
</linearGradient>
<linearGradient id="paint9_linear_103_1414" x1="11.2" y1="20.9896" x2="11.2" y2="24.7386" gradientUnits="userSpaceOnUse">
<stop stop-color="#8AAADC" stop-opacity="0"/>
<stop offset="1" stop-color="#8AAADC"/>
</linearGradient>
<linearGradient id="paint10_linear_103_1414" x1="14.0386" y1="22.145" x2="7.56804" y2="16.992" gradientUnits="userSpaceOnUse">
<stop stop-color="#8AAADC" stop-opacity="0"/>
<stop offset="1" stop-color="#8AAADC"/>
</linearGradient>
<linearGradient id="paint11_linear_103_1414" x1="7.15963" y1="17.5833" x2="4.61845" y2="15.5833" gradientUnits="userSpaceOnUse">
<stop stop-color="#8AAADC" stop-opacity="0"/>
<stop offset="1" stop-color="#8AAADC"/>
</linearGradient>
<linearGradient id="paint12_linear_103_1414" x1="3.52283" y1="13.4865" x2="12.0872" y2="22.0508" gradientUnits="userSpaceOnUse">
<stop stop-color="#76CCF8"/>
<stop offset="0.833" stop-color="#518EF8"/>
<stop offset="1" stop-color="#4981F8"/>
</linearGradient>
<linearGradient id="paint13_linear_103_1414" x1="4.13416" y1="12.8751" x2="12.6985" y2="21.4395" gradientUnits="userSpaceOnUse">
<stop stop-color="#76CCF8"/>
<stop offset="0.833" stop-color="#518EF8"/>
<stop offset="1" stop-color="#4981F8"/>
</linearGradient>
<clipPath id="clip0_103_1414">
<rect width="24" height="24" fill="white"/>
</clipPath>
</defs>
</svg>
