<svg width="11" height="14" viewBox="0 0 11 14" fill="none" xmlns="http://www.w3.org/2000/svg">
<path d="M5.05668 14C4.86556 13.9993 4.67688 13.9571 4.50368 13.8764C4.22077 13.7504 3.99355 13.5255 3.86467 13.2439C3.73579 12.9623 3.7141 12.6433 3.80368 12.3469L4.71426 9.33336H2.56876C2.29541 9.33369 2.02579 9.26998 1.7815 9.14734C1.53721 9.0247 1.32504 8.84654 1.162 8.62714C0.998966 8.40773 0.889594 8.15319 0.84265 7.8839C0.795707 7.61461 0.812497 7.33807 0.891677 7.07645L2.65568 1.24311C2.7632 0.882309 2.98485 0.56611 3.28734 0.341973C3.58984 0.117836 3.95687 -0.00214762 4.33334 2.91021e-05H6.48759C6.73245 0.000233935 6.97362 0.0597193 7.19048 0.173401C7.40735 0.287084 7.59347 0.451582 7.73293 0.65284C7.8724 0.854097 7.96106 1.08613 7.99135 1.32911C8.02163 1.57208 7.99264 1.81878 7.90684 2.04811L6.92509 4.6667H8.41668C8.73463 4.66667 9.04657 4.75327 9.31901 4.91718C9.59145 5.0811 9.81408 5.31614 9.963 5.59706C10.1119 5.87798 10.1815 6.19416 10.1642 6.51164C10.147 6.82912 10.0436 7.1359 9.86509 7.39903L6.13176 13.4074C6.01635 13.5881 5.85749 13.7371 5.66968 13.8406C5.48188 13.9441 5.27113 13.9989 5.05668 14Z" fill="#3AFFF3"/>
</svg>
